<?xml version="1.0" encoding="UTF-8"?>
<svg id="Layer_2" data-name="Layer 2" xmlns="http://www.w3.org/2000/svg" viewBox="0 0 253.45 200">
  <defs>
    <style>
      .cls-1 {
        fill: #fff;
      }
    </style>
  </defs>
  <g id="Background_1" data-name="Background 1">
    <g>
      <g>
        <path class="cls-1" d="M151.33,93.96c-.05,0-.1-.01-.15-.04-.12-.06-.19-.19-.17-.33L163.73,.28c.02-.17,.18-.3,.36-.27,.17,.02,.3,.18,.27,.36l-12.61,92.45L252.91,.09c.13-.12,.33-.11,.45,.02,.12,.13,.11,.33-.02,.45l-101.8,93.32c-.06,.06-.14,.08-.21,.08Z"/>
        <path class="cls-1" d="M151.33,93.96c-.06,0-.12-.02-.17-.05L.15,.59C0,.5-.04,.3,.05,.15,.14,0,.34-.04,.49,.05L150.18,92.56,85.95,.5c-.1-.14-.06-.34,.08-.44,.14-.1,.34-.07,.44,.08l65.11,93.32c.09,.12,.07,.29-.03,.4-.06,.07-.15,.1-.23,.1Z"/>
        <path class="cls-1" d="M253.13,164.79c-.06,0-.13-.02-.18-.06l-101.8-70.84c-.12-.09-.17-.24-.11-.38,.06-.14,.2-.21,.35-.19l101.8,18.66c.17,.03,.29,.2,.26,.37-.03,.17-.2,.28-.37,.26l-100.36-18.4,100.6,70c.14,.1,.18,.3,.08,.44-.06,.09-.16,.14-.26,.14Z"/>
        <path class="cls-1" d="M151.33,93.96c-.14,0-.26-.09-.31-.23-.05-.17,.05-.34,.22-.39l101.8-29.69c.17-.05,.35,.05,.4,.22,.05,.17-.05,.34-.22,.39l-101.8,29.69s-.06,.01-.09,.01Z"/>
        <path class="cls-1" d="M155.09,96.58c-.13,0-.24-.07-.29-.2-.35-.85-.48-1.65-.52-1.97-.25-.21-.32-.44-.33-.62-.03-.5,.38-1,.66-1.27-.38-.68,.04-1.75,.37-2.4-.86,.04-2.41-.03-3.22-.95-.43-.23-3.36-1.75-5.03-2.33,.33,1.13,.77,3.08,.05,3.65-.33,.26-.8,.21-1.4-.16-.15-.09-.2-.29-.1-.44,.09-.15,.29-.2,.44-.1,.38,.24,.6,.26,.67,.2,.35-.28,.06-2.05-.44-3.53-.04-.11-.01-.23,.07-.32s.2-.12,.31-.09c1.65,.39,5.62,2.49,5.79,2.58,.04,.02,.07,.05,.1,.08,.74,.89,2.64,.82,3.31,.72,.12-.02,.25,.04,.31,.14,.07,.1,.07,.24,0,.34-.39,.61-1.04,2-.58,2.39,.07,.06,.11,.15,.11,.25,0,.09-.04,.18-.12,.24-.28,.23-.68,.68-.66,.95,0,.04,0,.12,.16,.21,.09,.05,.14,.14,.15,.25,0,0,.08,.94,.49,1.93,.07,.16-.01,.35-.17,.42-.04,.02-.08,.02-.12,.02Z"/>
        <path class="cls-1" d="M160.37,100.25c-.07,0-.14-.02-.2-.07-.12-.09-2.9-2.26-2.8-4.07,.03-.51,.27-.94,.72-1.28-.06-.23-.08-.57,.07-1.02,.31-.91,1.41-2.25,4.79-3.73-1.2-.13-2.81-.49-3.58-1.51-.37-.49-.51-1.08-.43-1.75-1.1,.5-3.44,1.37-5.09,.57-.84-.41-1.37-1.19-1.59-2.31-.98-.09-4.59-.58-8.87-2.91,.5,1.62,1.45,5.14,.59,6.29-.21,.29-.5,.43-.91,.42-.18,0-.31-.15-.31-.33,0-.17,.15-.31,.32-.31,.01,0,.02,0,.04,0,.15,0,.26-.05,.34-.17,.65-.88-.23-4.44-.94-6.49-.04-.13,0-.27,.1-.35,.1-.08,.25-.1,.36-.03,5.1,2.98,9.51,3.25,9.55,3.25,.15,0,.27,.12,.3,.27,.16,1.04,.59,1.74,1.29,2.08,1.88,.93,5.08-.84,5.11-.86,.11-.06,.25-.05,.36,.03,.1,.08,.14,.22,.1,.34-.25,.76-.19,1.36,.17,1.85,1.09,1.44,4.5,1.33,4.53,1.32,.14,0,.29,.1,.32,.25,.03,.15-.05,.31-.2,.36-4.4,1.68-5.5,3.14-5.76,3.86-.19,.51-.03,.8-.02,.81,.08,.15,.04,.34-.11,.43-.4,.25-.61,.55-.63,.92-.07,1.23,1.82,2.97,2.55,3.54,.14,.11,.16,.31,.06,.45-.06,.08-.16,.12-.25,.12Z"/>
        <path class="cls-1" d="M161.82,101.26s-.06,0-.09-.01c-.15-.05-15.31-4.84-23.38-15.14-.11-.14-.08-.34,.05-.45,.14-.11,.34-.08,.45,.05,7.94,10.15,22.92,14.88,23.07,14.93,.17,.05,.26,.23,.21,.4-.04,.14-.17,.22-.3,.22Z"/>
        <path class="cls-1" d="M165.5,103.82c-.12,0-.24-.07-.29-.2-.98-2.36-1.13-4.28-.43-5.68,.47-.95,1.21-1.42,1.65-1.62-.58-1.21-.68-2.43-.3-3.63,.74-2.36,3.11-4.04,4.31-4.76-1.2-.38-3.49-1.3-4.71-3.19-.66-1.02-.91-2.17-.76-3.43-1.53,.66-5.85,2.29-9.06,1.14-1.3-.47-2.27-1.34-2.88-2.59-1.17-.35-9.47-2.93-16.2-7.02,.42,2.08,1.36,7.85-.84,9.53-.96,.73-2.34,.61-4.11-.37-.15-.08-.21-.28-.13-.43,.08-.15,.28-.21,.43-.13,1.53,.84,2.68,.98,3.42,.42,1.91-1.46,.97-7.44,.44-9.61-.03-.13,.02-.26,.12-.33,.1-.08,.25-.08,.36-.01,7.24,4.58,16.73,7.36,16.82,7.39,.09,.03,.16,.09,.2,.17,.53,1.16,1.4,1.97,2.58,2.39,3.63,1.3,9.07-1.34,9.13-1.36,.11-.05,.24-.04,.34,.04,.1,.08,.14,.2,.11,.32-.29,1.33-.1,2.53,.56,3.55,1.52,2.35,5.05,3.12,5.08,3.13,.13,.03,.23,.14,.25,.27,.02,.13-.05,.26-.18,.33-.04,.02-3.78,1.9-4.68,4.77-.36,1.14-.22,2.3,.41,3.46,.05,.09,.05,.19,.01,.28-.04,.09-.12,.16-.21,.18-.04,.01-1.05,.3-1.61,1.44-.6,1.23-.45,2.97,.46,5.14,.07,.16,0,.35-.17,.42-.04,.02-.08,.02-.12,.02Z"/>
        <path class="cls-1" d="M176.22,111.28c-.11,0-.22-.06-.28-.17-4.43-8.48-1.9-12.46-1.23-13.29-.93-2.33-.95-4.57-.07-6.65,1.53-3.64,5.35-5.8,6.95-6.57-.53-.26-1.14-.63-1.48-.84-2.01-1.25-6.68-4.57-7.77-8.96-1.37,1.17-5.86,4.57-9.99,2.98-3.83-1.48-6.15-6.84-6.89-15.92-2.01,1.33-10.37,5.98-25.01,2.5,.04,1.55-.07,6.75-3.3,9.15-2.07,1.54-4.99,1.6-8.69,.19-.16-.06-.25-.25-.18-.41,.06-.16,.24-.24,.41-.18,3.47,1.33,6.19,1.3,8.08-.1,3.46-2.57,3.03-8.97,3.03-9.03,0-.1,.03-.2,.11-.27,.08-.07,.19-.09,.28-.07,16.83,4.16,25.26-2.54,25.34-2.61,.09-.07,.22-.09,.33-.05,.11,.05,.18,.15,.19,.27,.67,9.16,2.86,14.52,6.53,15.93,4.47,1.72,9.68-3.17,9.74-3.22,.08-.08,.21-.11,.32-.07,.11,.04,.19,.13,.21,.25,.98,5.55,8.7,9.92,9.56,10.11h0c.13,0,.26,.08,.3,.21,.05,.16-.02,.34-.18,.4-.05,.02-5.49,2.23-7.3,6.55-.83,1.98-.78,4.11,.15,6.34,.05,.12,.02,.25-.07,.35-.03,.04-3.49,3.73,1.2,12.71,.08,.16,.02,.35-.13,.43-.05,.02-.1,.04-.15,.04Z"/>
        <path class="cls-1" d="M184.85,117.29c-.15,0-.29-.11-.31-.26-2.16-12.03,4.86-15.53,6.56-16.19-4.93-10.36,4.28-18.38,7.68-20.88-2.14,.24-6.28,.25-9.68-2.42-3.38-2.65-5.12-7.25-5.17-13.67-2.72,.59-18.72,3.47-27.53-8.04-2,.44-17.95,3.38-37.58-8.32-.31,1.75-1.72,7.78-6.91,11.23-4.04,2.68-9.36,3.12-15.81,1.29-.17-.05-.27-.22-.22-.39,.05-.17,.21-.27,.39-.22,6.27,1.78,11.41,1.37,15.29-1.21,5.74-3.82,6.7-11.18,6.71-11.25,.01-.11,.08-.2,.18-.25,.1-.05,.21-.04,.3,.01,20.85,12.62,37.54,8.49,37.71,8.45,.12-.03,.26,.01,.33,.12,9.32,12.41,27.2,7.93,27.38,7.88,.09-.03,.2,0,.27,.06,.08,.06,.12,.15,.12,.25-.02,6.42,1.64,10.98,4.92,13.56,4.47,3.52,10.5,2.09,10.56,2.07,.15-.04,.31,.04,.37,.19,.06,.15,0,.31-.13,.39-.15,.09-14.57,9.04-8.47,21.19,.04,.09,.04,.19,0,.27-.04,.09-.11,.15-.21,.18-.36,.1-8.79,2.61-6.46,15.59,.03,.17-.08,.34-.26,.37-.02,0-.04,0-.06,0Z"/>
        <path class="cls-1" d="M197.98,126.42c-.14,0-.27-.09-.31-.24-1.64-6.22-.99-11.17,1.94-14.72,4.87-5.9,14.42-6.12,17.14-6.05-4.42-5.51-6.3-11.14-5.59-16.72,1.02-8.02,7.2-13.63,9.11-15.2-2.54-.53-11.33-2.83-16.03-9.77-2.99-4.42-3.82-9.88-2.45-16.24-4.33,1.53-32.75,10.66-42.92-9.84-2.58,1.18-21.81,9.12-48.91-3-1.7,1.64-16.64,15.33-37.77,10.46-.17-.04-.28-.21-.24-.38,.04-.17,.22-.28,.38-.24,22,5.07,37.18-10.28,37.33-10.44,.09-.1,.24-.12,.36-.07,28.83,12.98,48.66,3.07,48.85,2.97,.07-.04,.17-.05,.25-.02,.08,.03,.15,.09,.19,.16,10.57,21.97,42.48,9.74,42.8,9.61,.11-.04,.23-.02,.32,.06,.09,.08,.13,.2,.1,.31-1.5,6.43-.75,11.92,2.23,16.31,5.35,7.9,16.19,9.62,16.3,9.63,.13,.02,.23,.11,.26,.24,.03,.13-.02,.26-.12,.33-.08,.06-8.24,6.02-9.41,15.2-.71,5.59,1.28,11.24,5.9,16.78,.08,.1,.1,.23,.04,.35-.06,.11-.19,.18-.3,.17-.12,0-11.94-.73-17.32,5.79-2.79,3.38-3.4,8.14-1.82,14.15,.04,.17-.06,.34-.23,.39-.03,0-.05,.01-.08,.01Z"/>
        <path class="cls-1" d="M227.68,147.08c-.1,0-.21-.05-.27-.14-.1-.16-10.28-15.85-7.08-28.21,1.22-4.69,4.19-8.34,8.85-10.86-1.52-2.74-12.19-23.98,11.5-40.37-4.73-1.18-31.49-8.7-31.13-27.15-3.95,.7-36.11,5.43-47.89-22.4-2.4,3.22-17.73,20.86-57.72,8.15-1.81,.3-34.17,5.56-60.92,.96-.17-.03-.29-.19-.26-.37,.03-.17,.2-.29,.37-.26,27.28,4.69,60.45-.92,60.78-.98,.05,0,.1,0,.15,.01,43.2,13.75,57.26-8.12,57.4-8.35,.06-.1,.18-.16,.3-.15,.12,0,.22,.09,.27,.2,12.09,29.65,47.43,22.56,47.79,22.48,.1-.02,.2,0,.27,.07,.08,.06,.12,.16,.11,.26-.81,19.91,31,27,31.32,27.07,.12,.03,.22,.13,.24,.25,.02,.13-.03,.25-.13,.32-25.55,17.17-11.89,39.98-11.74,40.21,.05,.08,.06,.17,.04,.25-.02,.09-.08,.16-.16,.2-4.66,2.44-7.62,6.01-8.82,10.61-3.14,12.09,6.89,27.55,6.99,27.71,.1,.15,.06,.34-.09,.44-.05,.04-.12,.05-.18,.05Z"/>
        <path class="cls-1" d="M240.31,155.88c-.13,0-.25-.08-.3-.21-.12-.33-12-33.43,3.46-45.17-1.2-2.76-12.05-28.94,0-43.89-1.55-2.74-18.48-33.58-5.3-52.66-2.91,1.44-10.83,4.9-21.74,6.09-12.73,1.39-32.24-.11-52.99-15.1-2.9,1.65-39.42,21.83-67.3,10-2.26,.45-41.78,8.08-74.05-.8-.17-.05-.27-.22-.22-.39,.05-.17,.22-.27,.39-.22,32.91,9.06,73.45,.85,73.85,.77,.06-.01,.13,0,.19,.02,28.62,12.22,66.62-9.8,67-10.03,.11-.06,.25-.06,.35,.02,39.52,28.67,75.07,8.67,75.43,8.47,.13-.08,.3-.05,.4,.07,.1,.11,.1,.28,.01,.4-14.99,19.4,4.45,52.91,4.65,53.24,.07,.12,.06,.26-.03,.36-12.66,15.37-.09,43.34,.04,43.63,.06,.14,.02,.3-.1,.39-15.39,11.32-3.57,44.26-3.45,44.59,.06,.17-.02,.35-.19,.41-.04,.01-.07,.02-.11,.02Z"/>
      </g>
      <path class="cls-1" d="M187.24,118.95h0c-27.81-.79-75.69-49.34-76.17-49.83-.12-.13-.12-.33,0-.45,.13-.12,.33-.12,.45,0,.48,.49,48.17,48.86,75.73,49.64,.18,0,.31,.15,.31,.33,0,.17-.15,.31-.32,.31Z"/>
      <path class="cls-1" d="M192.68,144.12h0c-.18,0-.31-.15-.31-.33l.51-20.72c-27.25-1.87-70.12-46.54-70.55-47-.12-.13-.12-.33,0-.45,.13-.12,.33-.12,.45,.01,.43,.45,43.45,45.28,70.44,46.82,.17,0,.3,.15,.3,.33l-.51,21.02c0,.17-.15,.31-.32,.31Z"/>
      <path class="cls-1" d="M253.13,200s-.03,0-.04,0c-24.75-3.43-49.2-13.42-72.67-29.7-18.76-13.02-36.94-30.07-54.03-50.67-29.09-35.07-45.16-68.75-45.31-69.09-.08-.16,0-.35,.15-.42,.16-.07,.35,0,.42,.15,.16,.34,16.19,33.95,45.24,68.97,26.79,32.29,70.45,72.41,126.29,80.14,.17,.02,.3,.18,.27,.36-.02,.16-.16,.27-.32,.27Z"/>
      <path class="cls-1" d="M205.05,94.8s-.04,0-.07,0c-.17-.04-.28-.21-.25-.38,1-4.74,1.34-14.48,1.4-16.5-29.37,3.88-59.09-15.41-78.9-32.32C105.72,27.24,90.95,7.65,90.8,7.45c-.11-.14-.08-.34,.06-.45,.14-.1,.34-.08,.44,.06,.15,.2,14.88,19.74,36.35,38.06,19.79,16.89,49.52,36.16,78.76,32.11,.09,0,.19,.02,.25,.08,.07,.06,.11,.15,.11,.24,0,.12-.3,11.65-1.42,16.99-.03,.15-.16,.25-.31,.25Z"/>
      <path class="cls-1" d="M203.55,132.77c-.18,0-.32-.14-.32-.32v-2.47c0-.18,.14-.32,.32-.32s.32,.14,.32,.32v2.47c0,.18-.14,.32-.32,.32Z"/>
      <path class="cls-1" d="M115.47,71.8c-.09,0-.18-.04-.25-.12-5.49-6.69-25.56-25.5-38.33-23.75-10.17,1.4-15.51-5.1-19.8-10.33-1.23-1.49-2.38-2.9-3.56-4.03-5.05-4.84-10.93-10.03-16.77-10.4-17-.07-21.95-8.36-25.22-13.85-.63-1.05-1.22-2.04-1.81-2.84-.11-.14-.08-.34,.06-.45,.14-.1,.34-.08,.44,.07,.62,.83,1.22,1.83,1.85,2.9,3.39,5.69,8.04,13.47,24.7,13.54,6.07,.38,12.05,5.66,17.19,10.57,1.2,1.15,2.37,2.57,3.61,4.08,4.41,5.37,9.4,11.45,19.22,10.1,13.01-1.8,33.36,17.22,38.91,23.98,.11,.14,.09,.34-.04,.45-.06,.05-.13,.07-.2,.07Z"/>
      <path class="cls-1" d="M230.1,21.85s-.08,0-.12,0c-.18,0-.31-.15-.31-.33,0-.18,.15-.31,.33-.31,.03,0,.07,0,.1,0,1.74,0,4.45-1.4,6.37-3.3,1.62-1.6,2.49-3.32,2.45-4.86,0-.18,.14-.32,.31-.33h0c.17,0,.31,.14,.32,.31,.04,1.71-.9,3.6-2.64,5.33-2.06,2.04-4.9,3.48-6.82,3.48Z"/>
    </g>
  </g>
</svg>