<?xml version="1.0" encoding="UTF-8"?>
<svg id="Layer_2" data-name="Layer 2" xmlns="http://www.w3.org/2000/svg" viewBox="0 0 265.75 200">
  <defs>
    <style>
      .cls-1 {
        fill: #fff;
      }
    </style>
  </defs>
  <g id="Background_1" data-name="Background 1">
    <g>
      <path class="cls-1" d="M72.91,67.08c-.06,0-.11-.02-.15-.06L.07,.4C-.02,.31-.03,.17,.06,.07,.15-.02,.29-.02,.38,.06L72.6,66.26,63.6,.26c-.02-.12,.07-.24,.19-.26,.12-.02,.24,.07,.26,.19l9.09,66.63c.01,.09-.03,.19-.12,.23-.03,.02-.07,.03-.11,.03Z"/>
      <path class="cls-1" d="M72.91,67.08c-.08,0-.15-.04-.19-.11-.06-.09-.04-.21,.03-.28L139.38,.07c.09-.09,.23-.09,.32,0,.09,.09,.09,.23,0,.32L73.77,66.32,265.45,.01c.12-.04,.25,.02,.29,.14,.04,.12-.02,.25-.14,.29L72.99,67.07s-.05,.01-.07,.01Z"/>
      <path class="cls-1" d="M.23,125.84c-.07,0-.13-.03-.18-.08-.08-.1-.06-.24,.03-.32l71.99-58.19L.27,80.4c-.12,.02-.24-.06-.26-.18-.02-.12,.06-.24,.18-.26l72.68-13.33c.1-.02,.2,.03,.25,.13,.04,.09,.02,.21-.06,.27L.37,125.79s-.09,.05-.14,.05Z"/>
      <path class="cls-1" d="M.23,200s-.07,0-.11-.03c-.11-.06-.15-.2-.09-.31L72.58,66.99,.16,45.87c-.12-.04-.19-.16-.15-.28,.04-.12,.16-.19,.28-.15l72.68,21.2c.07,.02,.12,.07,.15,.13,.03,.06,.02,.14-.01,.2L.43,199.88c-.04,.08-.12,.12-.2,.12Z"/>
      <path class="cls-1" d="M71.58,69.52c-.12,0-.22-.09-.23-.21-.03-.48-.44-.69-.46-.7-.1-.05-.15-.18-.11-.29,.23-.55-.29-.82-.31-.83-.07-.04-.12-.11-.12-.19,0-.08,.04-.16,.11-.2,.11-.07,.11-.13,.11-.15,.01-.19-.28-.52-.47-.68-.05-.04-.08-.11-.08-.17s.03-.13,.08-.18c.33-.28-.13-1.27-.41-1.7-.05-.07-.05-.17,0-.25,.05-.07,.14-.12,.22-.1,.02,0,1.73,.25,2.36-.51,.05-.05,.11-.08,.18-.08,.07,0,.13,.04,.18,.09,.32,.44,1.33,1.54,2.17,1.34,.08-.02,.16,0,.22,.06,.06,.06,.08,.14,.06,.22,0,0-.08,.31,.06,.53,.08,.12,.22,.19,.43,.22,.12,.02,.21,.13,.19,.26-.02,.12-.13,.21-.26,.19-.34-.05-.6-.19-.75-.42-.13-.19-.16-.41-.16-.58h0c-.93,0-1.81-.92-2.16-1.34-.61,.5-1.57,.55-2.14,.52,.24,.46,.54,1.23,.27,1.71,.2,.2,.49,.55,.47,.91,0,.08-.03,.19-.1,.29,.24,.22,.45,.58,.33,1.05,.2,.15,.5,.46,.54,.97,0,.13-.09,.23-.21,.24,0,0-.01,0-.02,0Z"/>
      <path class="cls-1" d="M68.9,74.43s-.03,0-.04,0c-.12-.02-.2-.14-.18-.26,.02-.08,.36-2.07-1.55-2.43-.09-.02-.16-.08-.18-.17-.02-.09,.01-.18,.09-.23,.01,0,1.04-.77,1.16-1.82,.06-.53-.13-1.06-.56-1.56-.06-.08-.07-.18-.02-.27,0,0,.11-.21-.02-.58-.19-.52-.97-1.56-4.11-2.76-.1-.04-.16-.15-.14-.26,.02-.11,.15-.17,.23-.18,.03,0,2.46,.08,3.23-.94,.26-.34,.3-.78,.12-1.32-.03-.09,0-.19,.07-.25,.07-.06,.17-.07,.25-.02,.02,.01,2.32,1.27,3.65,.61,.5-.25,.81-.75,.92-1.49,.01-.09,.08-.16,.16-.19,.09-.02,.18,0,.24,.07,.1,.12,2.49,2.9,6.01,.85,.08-.05,.19-.04,.26,.02,.07,.06,.1,.16,.07,.25,0,0-.27,.78,.18,1.35,.47,.6,1.59,.82,3.24,.63,.12-.02,.24,.07,.25,.2,.01,.12-.08,.24-.2,.25-1.84,.21-3.06-.06-3.65-.81-.34-.43-.38-.92-.35-1.28-2.88,1.42-5.06-.15-5.84-.87-.18,.67-.55,1.14-1.08,1.4-1.17,.58-2.84-.04-3.63-.4,.06,.48-.04,.89-.31,1.25-.55,.73-1.7,.99-2.55,1.08,2.41,1.06,3.2,2.02,3.42,2.67,.12,.35,.08,.62,.03,.77,.45,.57,.65,1.18,.57,1.8-.1,.83-.64,1.48-1,1.84,.91,.32,1.28,1,1.42,1.55,.17,.67,.06,1.27,.06,1.3-.02,.11-.12,.18-.22,.18Z"/>
      <path class="cls-1" d="M70.58,71.34c-.06,0-.12-.02-.16-.07-.09-.09-.08-.23,0-.32,.05-.04,4.76-4.44,18.36-9.83,.12-.05,.25,.01,.3,.13,.05,.12-.01,.25-.13,.29-13.5,5.35-18.17,9.69-18.22,9.73-.04,.04-.1,.06-.16,.06Z"/>
      <path class="cls-1" d="M35.44,155.82c-.13,0-.23-.1-.23-.23v-20.2c0-.07,.03-.13,.09-.18,.02-.01,1.53-1.23,1.35-2.41-.22-1.44-.24-2.11,1.7-3.12,1.54-.8,2.56-2.69,3.04-5.62,.39-2.39,2.69-6.6,4.48-8.18,2.41-2.14,3.93-4.92,4.63-8.48,.95-4.8,7.33-15.61,9.55-17.45,1.07-.88,6.44-5.68,7.68-14.04,0-.05,.03-.1,.07-.14,.15-.14,15.49-13.74,27.99-17.07,.12-.03,.25,.04,.28,.16,.03,.12-.04,.25-.16,.28-11.99,3.19-26.67,15.97-27.74,16.91-1.28,8.47-6.74,13.35-7.83,14.25-2.18,1.8-8.45,12.45-9.39,17.19-.73,3.66-2.29,6.52-4.78,8.73-1.69,1.51-3.96,5.65-4.33,7.92-.5,3.07-1.61,5.08-3.28,5.95-1.73,.9-1.66,1.34-1.46,2.64,.2,1.28-1.08,2.47-1.43,2.77v20.1c0,.13-.1,.23-.23,.23Z"/>
      <path class="cls-1" d="M66.86,78.16s-.01,0-.02,0c-.13,0-.22-.12-.21-.24,.11-1.45-.16-2.47-.81-3.04-.8-.69-1.93-.46-1.94-.46-.08,.02-.17-.01-.22-.08-.05-.06-.07-.15-.04-.23,.55-1.32,.61-2.44,.17-3.34-.61-1.26-2.01-1.66-2.03-1.66-.07-.02-.12-.07-.15-.13-.03-.06-.02-.14,0-.2,.45-.82,.55-1.65,.3-2.47-.64-2.05-3.31-3.39-3.34-3.41-.09-.04-.14-.14-.12-.23,.01-.1,.08-.17,.18-.19,.03,0,2.54-.55,3.63-2.23,.48-.73,.61-1.59,.4-2.54-.02-.09,.01-.17,.08-.23,.07-.05,.16-.06,.24-.03,.04,.02,3.93,1.9,6.52,.97,.84-.3,1.46-.87,1.84-1.71,.03-.06,.09-.11,.16-.13,.07-.01,.14,0,.2,.05,.05,.04,5.03,4.23,10.08,1.04,.08-.05,.18-.05,.26,0,.08,.06,.11,.15,.08,.24,0,.01-.38,1.46,.58,2.46,1.04,1.09,3.29,1.28,6.52,.58,.12-.03,.24,.05,.27,.17,.03,.12-.05,.24-.17,.27-3.45,.75-5.79,.51-6.95-.71-.76-.8-.81-1.8-.76-2.39-4.56,2.55-8.94-.37-9.97-1.15-.44,.81-1.1,1.38-1.97,1.69-2.29,.82-5.38-.34-6.47-.81,.11,.9-.07,1.72-.54,2.45-.87,1.35-2.51,2.01-3.37,2.28,.85,.51,2.55,1.71,3.08,3.4,.27,.86,.2,1.73-.21,2.59,.48,.19,1.51,.7,2.05,1.81,.46,.94,.45,2.07-.01,3.36,.47-.02,1.28,.03,1.94,.6,.77,.66,1.09,1.81,.97,3.42,0,.12-.11,.21-.23,.21Z"/>
      <path class="cls-1" d="M64.63,82.23c-.12,0-.23-.1-.23-.23,0-1.12-.37-1.98-1.07-2.57-1.63-1.36-4.59-.85-4.62-.84-.08,.02-.17-.02-.22-.09-.05-.07-.06-.16-.02-.24,1.08-2.08,1.32-3.87,.69-5.34-.89-2.1-3.25-2.81-3.28-2.82-.06-.02-.11-.06-.14-.12-.03-.06-.03-.13,0-.19,.66-1.59,.7-3.12,.1-4.53-1.3-3.08-5.18-4.66-5.21-4.67-.11-.05-.17-.17-.13-.29,.03-.1,.13-.17,.22-.15,.61-.14,6.12-3.26,6.82-7.22,.01-.08,.07-.15,.15-.18,.08-.03,.17,0,.23,.05,.04,.04,3.77,3.53,6.95,2.3,2.61-1.01,4.18-4.84,4.66-11.38,0-.1,.08-.18,.18-.21,.1-.02,.2,.02,.25,.11,.06,.11,6.09,10.8,18.04,7.85,.07-.02,.13,0,.19,.04,.05,.04,.09,.1,.09,.17,0,.03,.17,3.01,2.47,4.9,1.68,1.38,4.07,1.84,7.11,1.39,.12-.02,.24,.07,.26,.19,.02,.12-.07,.24-.19,.26-3.17,.48-5.68-.02-7.47-1.49-2.06-1.69-2.52-4.14-2.61-4.95-10.45,2.43-16.43-5.29-17.92-7.54-.55,6.31-2.2,10.04-4.89,11.08-2.94,1.14-6.15-1.29-7.13-2.13-.78,3.14-4.11,5.5-5.55,6.4-.24,.15-.68,.41-1.05,.6,1.14,.55,3.86,2.09,4.96,4.69,.61,1.46,.61,3.03-.01,4.66,.66,.25,2.52,1.09,3.33,2.99,.64,1.5,.47,3.3-.51,5.34,.93-.1,3.14-.18,4.55,1,.81,.68,1.23,1.66,1.24,2.92,0,.13-.1,.23-.23,.23h0Z"/>
      <path class="cls-1" d="M57.35,95.54s-.03,0-.05,0c-.12-.03-.2-.15-.18-.27,1.19-5.82,.86-9.6-.97-10.95-1.86-1.37-4.7,.17-4.73,.19-.08,.04-.17,.04-.24-.01-.07-.05-.11-.14-.09-.22,1.67-9.29-6.87-11.91-6.96-11.93-.06-.02-.12-.07-.14-.13-.03-.06-.03-.13,0-.19,4.35-8.68-5.94-15.07-6.05-15.13-.1-.06-.13-.18-.09-.28,.04-.1,.16-.16,.26-.13,.04,.01,4.35,1.03,7.54-1.48,2.34-1.84,3.53-5.1,3.51-9.68,0-.07,.03-.14,.09-.18,.06-.04,.13-.06,.2-.04,.13,.03,12.9,3.23,19.55-5.63,.04-.05,.09-.08,.15-.09,.06,0,.12,0,.17,.04,.14,.11,14.3,10.55,29.13,1.58,.08-.05,.18-.04,.26,.02,.07,.06,.1,.16,.08,.25-.02,.06-1.88,6.02,.96,9.84,1.66,2.23,4.59,3.31,8.7,3.24h0c.12,0,.22,.1,.23,.22,0,.13-.1,.23-.22,.23-4.28,.07-7.33-1.07-9.08-3.42-2.49-3.35-1.59-8.08-1.18-9.69-14,8.08-27.26-.57-28.96-1.76-6.3,8.15-17.67,6.1-19.61,5.68-.04,4.58-1.28,7.86-3.69,9.76-2.43,1.91-5.38,1.9-6.91,1.73,2.43,1.79,9,7.51,5.49,14.91,1.43,.52,8.36,3.5,7.1,11.93,.91-.4,3.15-1.18,4.81,.04,2.01,1.48,2.4,5.32,1.15,11.4-.02,.11-.12,.18-.22,.18Z"/>
      <path class="cls-1" d="M54.01,101.64c-.12,0-.22-.09-.23-.21-.25-2.99-1.37-5.11-3.33-6.3-4.65-2.85-12.59,.37-12.67,.4-.08,.03-.17,.02-.24-.04-.07-.06-.09-.15-.07-.23,1.2-4.52,.81-8.5-1.16-11.83-3.44-5.82-10.61-7.68-10.68-7.7-.08-.02-.14-.08-.16-.15-.02-.07,0-.16,.04-.22,3.3-3.96,4.72-7.99,4.21-11.98-.83-6.56-6.66-10.81-6.72-10.86-.07-.05-.11-.15-.09-.24,.02-.09,.1-.16,.19-.17,.08-.01,7.82-1.24,11.64-6.88,2.13-3.14,2.66-7.06,1.59-11.64-.02-.07,0-.15,.05-.2,.05-.05,.12-.08,.2-.07,.12,.01,12.27,1.45,20.64-5.38,4.65-3.8,7.3-9.43,7.86-16.73,0-.09,.07-.17,.16-.2,.09-.03,.19,0,.25,.08,.22,.29,22.34,29.25,42.86,20.01,.07-.03,.15-.03,.21,.01,.06,.04,.1,.11,.11,.18,0,.04,.22,4.18,4.41,7.65,3.8,3.15,11.77,6.41,28.16,4.03,.12-.02,.24,.07,.26,.19,.02,.12-.07,.24-.19,.26-13.3,1.93-22.9,.53-28.53-4.15-3.7-3.07-4.4-6.57-4.53-7.64-2.79,1.21-5.6,1.73-8.38,1.73-16.49,0-31.86-18.39-34.38-21.55-.67,7.15-3.35,12.69-7.98,16.47-7.75,6.32-18.67,5.69-20.66,5.51,1.01,4.59,.43,8.52-1.73,11.7-3.36,4.96-9.64,6.6-11.45,6.98,1.36,1.11,5.77,5.12,6.5,10.85,.51,4.03-.86,8.09-4.09,12.07,1.49,.45,7.52,2.56,10.62,7.81,1.97,3.33,2.41,7.28,1.32,11.75,1.74-.64,8.39-2.82,12.67-.21,2.09,1.28,3.28,3.52,3.54,6.65,.01,.12-.08,.23-.21,.24,0,0-.01,0-.02,0Z"/>
      <path class="cls-1" d="M24.88,154.91s-.07,0-.1-.02c-.11-.06-.16-.19-.1-.31,.13-.25,12.78-25.62,6.5-38.67-1.83-3.81-5.13-6.24-9.8-7.21-.07-.01-.12-.06-.15-.12-.03-.06-.03-.13,0-.19,.1-.24,9.9-23.64-4.31-31.08-.06-.03-.1-.08-.11-.14-.02-.06,0-.13,.03-.18,.1-.16,9.84-16.45-8.38-28.71-.08-.05-.11-.14-.1-.23,.02-.09,.09-.16,.18-.18,.23-.05,22.94-5.11,22.36-19.33,0-.12,.09-.23,.21-.24,.24-.02,24.57-1.92,33.22-23.12,.02-.06,.08-.11,.14-.13,.06-.02,.13-.01,.19,.02,.3,.18,30.68,18.01,61.62,8.17,.06-.02,.13-.01,.19,.02,.06,.04,.09,.1,.1,.16,0,.05,.76,5.15,8.64,9.33,7.31,3.88,22.4,7.73,52.79,4.06,.11-.02,.24,.07,.25,.2,.02,.12-.07,.24-.2,.25-30.56,3.69-45.76-.22-53.12-4.15-7.11-3.8-8.52-8.25-8.76-9.38-29.63,9.29-58.66-6.53-61.51-8.16-8.39,20.17-30.83,22.91-33.29,23.15,.33,13.23-18.84,18.61-22.22,19.45,16.91,11.7,9.3,26.87,8.21,28.82,13.48,7.31,5.44,28.71,4.41,31.29,4.68,1.04,7.99,3.53,9.85,7.41,6.38,13.26-6.38,38.82-6.51,39.07-.04,.08-.12,.12-.2,.12Z"/>
      <path class="cls-1" d="M13.83,175.12s-.06,0-.09-.02c-.12-.05-.17-.18-.12-.3,.14-.34,13.99-34.28-4.48-56.32-.05-.06-.07-.14-.04-.21,.09-.31,8.6-31.04-2.39-39.13-.09-.06-.12-.18-.07-.28,.09-.2,9.07-20.17,.03-31.15-.06-.07-.07-.18-.02-.26,.14-.24,14.02-24.17,3.32-38.02-.07-.09-.06-.21,0-.29,.07-.08,.19-.1,.28-.05,.06,.04,6.45,3.68,16.23,4.74,9.03,.98,22.88-.09,37.62-10.79,.05-.04,.12-.05,.18-.04,.49,.11,49.65,10.76,70.13,2.02,.04-.02,.09-.02,.13-.01,.73,.15,73.15,14.39,110.92,1.88,.11-.04,.25,.02,.29,.14,.04,.12-.02,.25-.14,.29-37.36,12.37-108.45-1.34-111.08-1.86-20.2,8.56-67.73-1.46-70.24-2-14.83,10.73-28.78,11.8-37.87,10.81-7.79-.85-13.44-3.32-15.52-4.34,9.41,13.62-2.68,35.64-3.79,37.6,8.61,10.67,.86,29.36,0,31.34,10.8,8.25,3.11,37.01,2.45,39.39,18.53,22.26,4.62,56.35,4.48,56.7-.04,.09-.12,.14-.21,.14Z"/>
      <path class="cls-1" d="M71.31,66.62h0c-4.22-.01-15.02-2.32-24.79-7.23-9.92-4.99-15.59-6.18-27.09-7.9-11.18-1.67-13.41-2.49-15.77-4.62-.09-.08-.1-.23-.02-.32,.08-.09,.23-.1,.32-.02,2.28,2.06,4.47,2.86,15.53,4.51,11.55,1.73,17.25,2.93,27.23,7.94,9.7,4.88,20.41,7.17,24.59,7.18,.13,0,.23,.1,.23,.23,0,.13-.1,.23-.23,.23Z"/>
      <path class="cls-1" d="M70.58,50c-.12,0-.23-.1-.23-.22,0-.13,.1-.23,.22-.23,24.24-.27,60.55-41.18,60.91-41.6,.08-.09,.23-.1,.32-.02s.1,.23,.02,.32c-.37,.41-36.81,41.48-61.25,41.75h0Z"/>
      <path class="cls-1" d="M48.45,111.81s-.05,0-.08-.01c-.12-.04-.18-.17-.14-.29,7.52-20.64,5.55-39.19,2.56-51.12-3.24-12.93-8.32-21.09-8.37-21.17-.07-.11-.04-.25,.07-.31,.11-.07,.25-.03,.31,.07,.05,.08,5.17,8.28,8.42,21.28,3,11.99,5,30.65-2.57,51.4-.03,.09-.12,.15-.21,.15Z"/>
    </g>
  </g>
</svg>